<svg class="footer__logo__img" width="87px" height="24px" viewBox="0 0 87 24" version="1.1" xmlns="http://www.w3.org/2000/svg" xmlns:xlink="http://www.w3.org/1999/xlink"><g><path fill="#0045cf" d="M16.4749,18.1071 L16.4749,18.7471 C16.4749,23.2231 13.0849,23.9981 8.1699,23.9981 C2.0679,23.9981 -0.0001,21.7091 -0.0001,14.9091 C-0.0001,8.1771 2.1689,5.7871 8.2039,5.7871 C14.3059,5.7871 16.4749,8.3451 16.4749,14.4711 L16.4749,15.6501 L4.3389,15.6501 C4.3389,19.9921 5.1869,20.9341 8.2039,20.9341 C10.9499,20.9341 12.2379,20.4971 12.2379,18.4771 L12.2379,18.1071 L16.4749,18.1071 Z M19.7589,23.9421 L23.9969,23.9421 L23.9969,0.0081 L19.7589,0.0081 L19.7589,23.9421 Z M43.8469,18.1071 L43.8469,18.7471 C43.8469,23.2231 40.4559,23.9981 35.5409,23.9981 C29.4389,23.9981 27.3709,21.7091 27.3709,14.9091 C27.3709,8.1771 29.5409,5.7871 35.5759,5.7871 C41.6779,5.7871 43.8469,8.3451 43.8469,14.4711 L43.8469,15.6501 L31.7109,15.6501 C31.7109,19.9921 32.5579,20.9341 35.5759,20.9341 C38.3209,20.9341 39.6089,20.4971 39.6089,18.4771 L39.6089,18.1071 L43.8469,18.1071 Z M35.6089,8.8501 C32.6599,8.8501 31.7109,9.8941 31.7109,13.0241 L39.6089,13.0241 C39.6089,9.8941 38.5929,8.8501 35.6089,8.8501 Z M51.1659,12.3901 L52.3809,12.3901 L57.5349,5.7861 L62.3819,5.7861 L55.7959,14.5511 L63.3559,23.9421 L58.2369,23.9421 L52.8139,16.5131 L51.1659,16.5131 L51.1659,23.9421 L47.0489,23.9421 L47.0489,0.0091 L51.1659,0.0091 L51.1659,12.3901 Z M75.6969,10.9371 C75.6969,9.2881 74.9849,8.7151 71.9669,8.7151 C68.9159,8.7151 68.5099,9.2201 68.5099,11.0721 C68.5099,12.5191 69.0179,12.8561 73.2899,13.1591 C77.2559,13.4271 80.4089,14.4381 80.4089,18.1741 C80.4089,23.1901 77.0859,23.9981 72.5089,23.9981 C68.8159,23.9981 64.1709,23.9301 64.1709,19.1171 L64.1709,18.1741 L68.5099,18.1741 C68.5099,20.4971 69.3239,21.0691 71.5609,21.0691 L72.8489,21.0691 C75.2889,21.0691 76.2719,20.3621 76.2719,18.6121 C76.2719,17.0631 75.2889,16.5241 71.6629,16.3231 C66.8489,16.0201 64.1709,15.0441 64.1709,11.0051 C64.1709,6.5611 67.2219,5.7871 71.9329,5.7871 C75.1539,5.7871 79.8309,5.9211 79.8309,10.1631 C79.8309,10.3311 79.7989,10.7011 79.7649,10.9371 L75.6969,10.9371 Z M86.9999,2.9201 L86.9999,2.8151 C86.9719,1.2511 85.6959,0.0001 84.1329,0.0001 C82.5439,0.0001 81.2649,1.2791 81.2649,2.8671 C81.2649,4.4561 82.5439,5.7351 84.1329,5.7351 C85.6959,5.7351 86.9719,4.4841 86.9999,2.9201 Z M84.1329,5.0801 C82.8979,5.0801 81.9129,4.0861 81.9129,2.8591 C81.9129,1.6331 82.8979,0.6541 84.1329,0.6541 C85.3449,0.6541 86.3529,1.6481 86.3529,2.8751 C86.3529,4.1021 85.3449,5.0801 84.1329,5.0801 Z M84.4629,2.6711 L83.5459,2.6711 L83.5459,1.8361 L84.3289,1.8361 C84.7199,1.8361 85.0049,1.8971 85.0049,2.2051 C85.0049,2.5961 84.8179,2.6711 84.4629,2.6711 Z M84.1329,3.1691 L84.8249,4.4401 L85.5629,4.4401 L84.8099,3.1311 C85.3589,3.0931 85.6529,2.8591 85.6529,2.2881 C85.6529,1.4671 85.1639,1.3391 84.4489,1.3391 L82.8979,1.3391 L82.8979,4.4401 L83.5459,4.4401 L83.5459,3.1691 L84.1329,3.1691 Z M8.2379,8.8501 C5.2879,8.8501 4.3389,9.8941 4.3389,13.0241 L12.2379,13.0241 C12.2379,9.8941 11.2209,8.8501 8.2379,8.8501 Z"></path></g></svg>