<?xml version="1.0" encoding="UTF-8"?> <svg xmlns="http://www.w3.org/2000/svg" id="Layer_1" data-name="Layer 1" viewBox="0 0 854 276"><defs><style> .cls-1 { fill: #6ec6aa; } .cls-1, .cls-2 { stroke-width: 0px; } .cls-2 { fill: #fff; } </style></defs><rect class="cls-1" x="237.07" y="258.27" width="319.42" height="17.39"></rect><g><path class="cls-2" d="m20.57,224.13h25.41V61.91h-25.41v162.22Zm0-192.97h25.41V-.22h-25.41v31.38Z"></path><g><path class="cls-2" d="m105.91,94.8h.63c11.61-15.37,27.93-36.66,51.46-36.66,33.89,0,54.6,18.51,54.6,52.09v113.9h-25.42v-111.7c0-21.02-13.81-32.95-36.71-32.95-25.73,0-44.56,18.2-44.56,44.87v99.78h-25.42V61.91h25.42v32.89Z"></path><path class="cls-2" d="m237.07,143.17c0-47.06,30.12-85.35,78.44-85.35,38.28,0,63.7,21.96,69.35,56.48h-25.73c-3.76-21.96-19.14-50.33-43.61-50.33-34.52,0-52.4,43.43-52.4,79.2s17.89,78.43,52.4,78.43c26.36,0,42.05-29.49,44.24-54.59h25.1c-3.45,38.91-28.87,61.5-69.35,61.5-48.32,0-78.44-38.28-78.44-85.35"></path><path class="cls-2" d="m530.46,143.17c0-35.77-17.57-79.2-52.09-79.2s-52.4,43.43-52.4,79.2,17.89,78.04,52.4,78.04,52.09-42.27,52.09-78.04m-130.53,0c0-47.06,30.12-85.35,78.44-85.35s78.13,38.28,78.13,85.35-29.5,85.35-78.13,85.35-78.44-38.28-78.44-85.35"></path><path class="cls-2" d="m607.33,104.95h.63c9.73-15.69,26.67-44.92,48.32-44.92,4.71,0,7.22.63,10.35,1.88v24.48h-.94c-3.77-1.26-6.28-1.57-11.3-1.57-25.1,0-47.06,18.83-47.06,49.26v90.05h-25.41V61.91h25.41v43.04Z"></path><path class="cls-2" d="m783.36,164.2v-27.61c-8.47,5.33-23.22,9.41-37.02,11.92-25.42,4.71-45.81,9.1-45.81,32.95,0,21.65,16.84,39.76,33.47,39.76,33.89,0,49.36-38.19,49.36-57.02m-.62,37.34h-.32c-9.72,12.55-26.35,25.73-53.97,25.73-30.75,0-54.91-14.43-54.91-45.18,0-38.28,30.12-46.12,70.6-52.4,22.91-3.45,38.91-5.65,38.91-23.22s-13.74-40.54-36.96-40.54c-26.36,0-38.98,23.28-39.92,47.75h-24.47c.94-31.38,21.65-54.91,64.64-54.91,34.52,0,59.93,12.87,59.93,51.46v77.19c0,13.18,3.14,20.39,17.26,17.26h.94v18.51c-3.14,1.26-7.22,2.51-13.8,2.51-16.63,0-25.42-7.53-27.93-24.16"></path></g><path class="cls-2" d="m819.19,60.09h13.17v3.48h-4.46v11.7h-4.24v-11.7h-4.46v-3.48Zm15.4,0h5.88l2.67,9.58h.11l2.72-9.58h5.88v15.18h-3.92v-9.85h-.11l-2.99,9.85h-3.32l-2.94-9.85h-.11v9.85h-3.86v-15.18Z"></path></g></svg> 