<svg xmlns="http://www.w3.org/2000/svg" fill="none" viewBox="0 0 234 76.795"><path class="logo-star" fill="#f58220" d="M12.121 10.727c1.762-1.421 3.73-2.788 5.422-4.156h-6.7C10.102 4.423 8.772 0 8.772 0S7.389 4.423 6.7 6.57H0c1.693 1.368 3.73 2.665 5.422 4.157-.742 2.132-2.072 6.518-2.072 6.518s3.729-2.7 5.422-3.961a1005.96 1005.96 0 0 0 5.421 3.944s-1.33-4.37-2.072-6.501z"></path><path fill="#f58220" d="m11.43 18.86-5.474 4.175v32.537h5.474zm36.313 15.862v20.831h5.473V34.722c0-11.048-5.525-16.572-15.315-16.572-4.887 0-8.823 2.239-11.915 5.027v-4.368l-5.473 4.156v32.588h5.473V28.168c3.04-2.789 6.752-4.973 11.069-4.973 6.543 0 10.688 4.156 10.688 11.527zm26.902-11.154 6.008-4.707h-12.07V4.423l-5.525 4.155v10.337l-6.009 4.706h6.009v21.384c0 7.05 4.3 11.046 10.256 11.046 2.504 0 4.886-.338 7.182-1.101v-4.262c-1.864.32-3.557.497-5.04.497-4.731 0-6.855-2.522-6.855-9.077V23.57h6.042zm137.72 27.848c-3.781 0-8.184-1.03-13.14-3.055l-2.02 4.208c4.937 2.24 9.946 3.394 15.039 3.394 9.308 0 14.193-4.494 14.193-10.941 0-5.967-4.627-8.862-13.554-10.71-7.131-1.42-9.997-3.001-9.997-6.02 0-3.286 3.35-5.47 8.185-5.47 4.196 0 8.132.817 11.758 2.468l1.865-4.208c-4.575-1.92-9.048-2.842-13.451-2.842-3.885 0-7.08.922-9.566 2.894-2.451 1.972-3.66 4.44-3.66 7.441 0 5.737 4.678 8.525 13.4 10.444 7.078 1.421 10.1 3.002 10.1 6.287-.173 3.482-2.988 6.11-9.152 6.11zm-32.427-28.22c3.936 0 7.183 1.704 9.79 5.025l3.61-3.392c-3.403-4.423-7.926-6.678-13.4-6.678-5.319 0-9.946 1.813-13.779 5.576-3.782 3.66-5.68 8.152-5.68 13.339 0 5.185 1.916 9.625 5.68 13.338 3.833 3.658 8.46 5.47 13.779 5.47 5.422 0 9.842-2.237 13.347-6.785l-3.557-3.391c-2.556 3.445-5.801 5.131-9.79 5.131-3.886 0-7.183-1.367-9.946-4.049-2.711-2.734-4.092-5.967-4.092-9.785 0-3.89 1.38-7.105 4.092-9.839 2.763-2.594 6.06-3.962 9.946-3.962zm-79.55 32.749c6.804 0 12.553-2.79 15.902-7.335l-3.609-3.002c-2.814 3.605-6.646 5.364-11.326 5.364-3.35 0-6.37-1.155-9.046-3.393-2.557-2.29-4.093-5.185-4.577-8.755h29.889l.052-1.474c0-5.683-1.588-10.337-4.68-13.835-3.09-3.605-7.339-5.364-12.605-5.364-5.267 0-9.618 1.813-13.07 5.47-3.349 3.66-5.06 8.152-5.06 13.463 0 5.31 1.71 9.784 5.06 13.444 3.452 3.623 7.803 5.417 13.07 5.417zm-8.51-29.804c2.279-2.238 5.161-3.34 8.511-3.34 7.184 0 11.432 4.708 11.914 11.652H87.784c.482-3.287 1.813-6.074 4.092-8.312zm45.462-2.573 6.01-4.707h-12.123V4.423l-5.526 4.155v10.337l-6.009 4.706h6.009v21.384c0 7.05 4.3 11.046 10.257 11.046 2.503 0 4.887-.338 7.183-1.101v-4.262c-1.865.32-3.557.497-5.111.497-4.731 0-6.855-2.522-6.855-9.077V23.57h6.163zm16.368-4.707-5.472 4.174v32.537h5.472zm-2.71-11.917c-1.916 0-3.506 1.474-3.506 3.445 0 1.972 1.59 3.552 3.505 3.552 1.866 0 3.35-1.58 3.35-3.552 0-1.97-1.484-3.445-3.348-3.445zM7.39 73.88l-2.4-9.625h1.277l1.123 4.867c.26 1.207.536 2.414.69 3.338h.053c.154-.977.43-2.077.742-3.338l1.278-4.867h1.278l1.12 4.867c.262 1.153.538 2.29.641 3.285h.051c.207-1.047.484-2.132.743-3.339l1.226-4.867h1.226l-2.659 9.629h-1.278l-1.175-5.027c-.258-1.208-.482-2.184-.586-3.126h-.051a23.141 23.141 0 0 1-.742 3.126L8.616 73.83H7.391v.052zm10.48-10.157h1.226v4.316h.053c.207-.391.482-.71.844-.87.39-.218.831-.33 1.278-.322.899 0 2.35.552 2.35 2.95V73.9h-1.227v-3.997c0-1.083-.43-2.024-1.536-2.024-.796 0-1.382.55-1.659 1.26-.065.196-.1.4-.103.605V73.9h-1.225zm8.722 6.943c.05 1.704 1.07 2.416 2.277 2.416.847 0 1.435-.16 1.866-.374l.208.871c-.432.214-1.175.444-2.227.444-2.074 0-3.3-1.42-3.3-3.499 0-2.078 1.176-3.712 3.143-3.712 2.227 0 2.763 1.972 2.763 3.233 0 .266 0 .444-.052.604h-4.678zm3.555-.94c0-.765-.327-2.026-1.71-2.026-1.276 0-1.76 1.155-1.864 2.026zm2.969-.604c0-.817 0-1.528-.05-2.132h1.07l.05 1.367h.053c.31-.923 1.07-1.527 1.864-1.527.105 0 .208 0 .312.054v1.207c-.104-.053-.261-.053-.433-.053-.845 0-1.484.657-1.657 1.582-.052.158-.052.39-.052.602v3.66h-1.226V69.12h.069zm5.44 1.544c.052 1.704 1.07 2.416 2.28 2.416.844 0 1.432-.16 1.864-.374l.207.871c-.431.214-1.173.444-2.227.444-2.073 0-3.297-1.42-3.297-3.499 0-2.078 1.173-3.712 3.142-3.712 2.227 0 2.762 1.972 2.762 3.233 0 .266 0 .444-.051.604h-4.68Zm3.557-.94c0-.765-.328-2.026-1.71-2.026-1.277 0-1.76 1.155-1.864 2.026zm6.32 2.841c.38.214 1.002.498 1.64.498.846 0 1.279-.446 1.279-1.03 0-.588-.381-.926-1.226-1.262-1.227-.445-1.812-1.155-1.812-1.972 0-1.101.897-2.024 2.347-2.024.69 0 1.277.16 1.64.445l-.258.922c-.261-.16-.744-.444-1.382-.444-.742 0-1.122.445-1.122.924 0 .55.38.817 1.277 1.208 1.175.445 1.761 1.029 1.761 2.078 0 1.207-.949 2.078-2.503 2.078a3.89 3.89 0 0 1-1.917-.498zm12.019-2.24c0 2.576-1.763 3.66-3.351 3.66-1.813 0-3.246-1.366-3.246-3.552 0-2.291 1.485-3.658 3.348-3.658 1.919.053 3.247 1.474 3.247 3.552zm-5.319.108c0 1.528.845 2.682 2.02 2.682 1.173 0 2.02-1.154 2.02-2.682 0-1.155-.587-2.628-2.02-2.628-1.383-.053-2.02 1.313-2.02 2.628zm7.233 3.445v-5.967h-.95v-.977h.95v-.319c0-.977.207-1.865.794-2.398a2.433 2.433 0 0 1 1.658-.657c.43 0 .795.108 1.071.214l-.157.976c-.153-.107-.43-.16-.794-.16-1.07 0-1.328.924-1.328 2.025v.392h1.657v.976h-1.659v5.967h-1.225v-.072h-.016zm6.112-8.576v1.632h1.762v.977h-1.76v3.713c0 .87.208 1.366.899 1.366.31 0 .534-.052.691-.105l.05.976c-.207.108-.586.16-1.07.16-.586 0-1.018-.213-1.328-.55-.312-.391-.484-.977-.484-1.812v-3.765h-1.07v-.976h1.07v-1.315l1.244-.301Zm4.215 1.632.897 3.5c.154.764.38 1.474.482 2.185h.052c.156-.711.381-1.42.589-2.186l1.12-3.55h1.002l1.07 3.444c.26.817.432 1.527.59 2.238h.05c.104-.711.276-1.42.536-2.238l.967-3.445h1.225l-2.175 6.89h-1.122l-1.02-3.285c-.207-.763-.431-1.474-.586-2.292h-.052c-.155.818-.38 1.529-.587 2.292l-1.054 3.287h-1.12l-2.022-6.892h1.173v.052zm14.71 5.258c0 .603.051 1.207.104 1.634h-1.121l-.105-.87h-.052c-.38.55-1.121 1.028-2.074 1.028-1.379 0-2.07-.975-2.07-1.97 0-1.705 1.433-2.575 4.04-2.575v-.16c0-.55-.154-1.581-1.536-1.581-.64 0-1.278.161-1.762.497l-.258-.817c.534-.373 1.38-.603 2.227-.603 2.072 0 2.556 1.42 2.556 2.789v2.626h.05zm-1.208-1.865c-1.33-.054-2.867.214-2.867 1.527 0 .817.536 1.209 1.122 1.209.899 0 1.433-.552 1.64-1.155.053-.16.053-.266.053-.392V70.33h.05zm3.35-1.207c0-.817 0-1.528-.052-2.132h1.07l.052 1.367h.051c.329-.923 1.072-1.527 1.866-1.527.103 0 .208 0 .31.054v1.207c-.102-.053-.26-.053-.431-.053-.845 0-1.485.657-1.659 1.582-.05.158-.05.39-.05.602v3.66h-1.226V69.12h.069zm5.42 1.544c.052 1.704 1.07 2.416 2.28 2.416.846 0 1.432-.16 1.865-.374l.206.871c-.43.214-1.173.444-2.227.444-2.072 0-3.297-1.42-3.297-3.499 0-2.078 1.173-3.712 3.142-3.712 2.227 0 2.763 1.972 2.763 3.233 0 .266 0 .444-.052.604h-4.68zm3.61-.94c0-.765-.33-2.026-1.71-2.026-1.278 0-1.762 1.155-1.865 2.026zm11.274 3.889c-.328.16-1.018.39-1.916.39-2.02 0-3.349-1.421-3.349-3.551 0-2.132 1.432-3.659 3.608-3.659.742 0 1.382.16 1.71.39l-.26.977c-.258-.16-.742-.32-1.433-.32-1.536 0-2.4 1.208-2.4 2.629 0 1.582 1 2.575 2.35 2.575.69 0 1.173-.16 1.483-.32zm7.548-3.287c0 2.575-1.762 3.66-3.35 3.66-1.812 0-3.247-1.367-3.247-3.553 0-2.291 1.485-3.658 3.35-3.658 1.917.053 3.247 1.474 3.247 3.552zm-5.319.107c0 1.528.845 2.682 2.02 2.682s2.02-1.154 2.02-2.682c0-1.155-.586-2.628-2.02-2.628-1.381-.053-2.02 1.313-2.02 2.628zm7.13-1.634c0-.71 0-1.313-.051-1.865h1.07l.053 1.155h.05c.329-.657 1.123-1.314 2.227-1.314.951 0 2.401.551 2.401 2.949v4.1h-1.226v-3.994c0-1.102-.431-2.025-1.536-2.025-.795 0-1.434.604-1.658 1.313-.066.196-.1.4-.103.606v4.154h-1.227zm12.761 4.814c-.328.16-1.018.39-1.916.39-2.02 0-3.349-1.421-3.349-3.551 0-2.132 1.432-3.659 3.608-3.659.742 0 1.382.16 1.71.39l-.26.977c-.26-.16-.742-.32-1.433-.32-1.536 0-2.4 1.208-2.4 2.629 0 1.582 1.02 2.575 2.35 2.575.689 0 1.173-.16 1.483-.32zm2.229-2.95c.05 1.705 1.07 2.417 2.28 2.417.844 0 1.432-.16 1.864-.374l.207.871c-.431.214-1.175.444-2.227.444-2.073 0-3.299-1.42-3.299-3.499 0-2.078 1.175-3.712 3.142-3.712 2.227 0 2.764 1.972 2.764 3.233 0 .266 0 .444-.053.604H134.2zm3.574-.94c0-.764-.329-2.025-1.71-2.025-1.277 0-1.761 1.155-1.864 2.026zm2.969-.479c0-.87-.05-1.582-.05-2.237h1.07l.05 1.207h.053c.483-.817 1.277-1.315 2.4-1.315 1.657 0 2.866 1.42 2.866 3.499 0 2.47-1.485 3.73-3.092 3.73-.897 0-1.657-.391-2.071-1.1h-.051v3.764h-1.226v-7.548zm1.175 1.794c0 .16 0 .39.05.496.208.871.951 1.475 1.813 1.475 1.28 0 2.021-1.083 2.021-2.682 0-1.367-.691-2.575-2.02-2.575-.846 0-1.658.605-1.864 1.528a1.587 1.587 0 0 0-.105.496v1.262zm8.443-5.736v1.632h1.76v.977h-1.76v3.713c0 .87.207 1.366.897 1.366.311 0 .536-.052.69-.105l.053.976c-.207.108-.587.16-1.07.16a1.75 1.75 0 0 1-1.33-.55c-.31-.391-.484-.977-.484-1.812v-3.765h-1.07v-.976h1.07v-1.315zm3.297 7.263c.363.214 1.002.498 1.64.498.847 0 1.278-.446 1.278-1.03 0-.588-.362-.926-1.225-1.262-1.226-.445-1.813-1.155-1.813-1.972 0-1.101.897-2.024 2.349-2.024.69 0 1.278.16 1.64.445l-.26.922c-.259-.16-.741-.444-1.38-.444-.744 0-1.123.445-1.123.924 0 .55.38.817 1.278 1.208 1.173.445 1.76 1.029 1.76 2.078 0 1.207-.966 2.078-2.503 2.078a3.897 3.897 0 0 1-1.916-.498zm14.263 1.048c-.33.16-1.02.39-1.917.39-2.02 0-3.35-1.421-3.35-3.551 0-2.132 1.433-3.659 3.608-3.659.743 0 1.382.16 1.71.39l-.259.977c-.26-.16-.743-.32-1.433-.32-1.537 0-2.4 1.208-2.4 2.629 0 1.582 1.018 2.575 2.348 2.575.691 0 1.173-.16 1.485-.32zm7.545-3.287c0 2.575-1.76 3.66-3.35 3.66-1.812 0-3.245-1.367-3.245-3.553 0-2.291 1.486-3.658 3.35-3.658 1.968.053 3.245 1.474 3.245 3.552zm-5.317.107c0 1.528.846 2.682 2.02 2.682 1.173 0 2.02-1.154 2.02-2.682 0-1.155-.587-2.628-2.02-2.628-1.38-.053-2.02 1.313-2.02 2.628zm7.182-1.634c0-.71-.05-1.313-.05-1.865h1.07l.05 1.155h.053c.38-.657 1.001-1.26 2.124-1.26.897 0 1.588.55 1.917 1.366h.05c.208-.373.484-.71.744-.869.431-.32.846-.498 1.485-.498.897 0 2.227.604 2.227 3.002v4.048h-1.175v-3.889c0-1.367-.482-2.13-1.433-2.13-.69 0-1.226.55-1.433 1.154a2.128 2.128 0 0 0-.103.603v4.262h-1.175v-4.154c0-1.085-.482-1.865-1.38-1.865-.742 0-1.33.604-1.486 1.26-.065.195-.1.399-.103.605v4.154h-1.175v-5.079zm12.534 1.865c.053 1.704 1.071 2.416 2.28 2.416.846 0 1.434-.16 1.866-.374l.207.871c-.433.214-1.175.444-2.228.444-2.072 0-3.298-1.42-3.298-3.499 0-2.078 1.173-3.712 3.142-3.712 2.228 0 2.764 1.972 2.764 3.233 0 .266 0 .444-.053.604h-4.68zm3.627-.94c0-.765-.327-2.026-1.71-2.026-1.278 0-1.76 1.155-1.864 2.026zm11.172 2.468c0 .603.052 1.207.104 1.634h-1.122l-.105-.87c-.38.55-1.121 1.028-2.072 1.028-1.38 0-2.072-.975-2.072-1.97 0-1.705 1.433-2.575 4.041-2.575v-.16c0-.55-.155-1.581-1.537-1.581-.64 0-1.278.161-1.76.497l-.26-.817c.536-.373 1.38-.603 2.227-.603 2.072 0 2.556 1.42 2.556 2.789v2.626zm-1.174-1.865c-1.33-.054-2.867.214-2.867 1.527 0 .817.536 1.209 1.123 1.209.898 0 1.433-.552 1.64-1.155.052-.16.052-.266.052-.392V70.33zm4.574-6.606h-1.225v10.122h1.225zm3.61 1.297c0 .444-.26.763-.794.763-.432 0-.744-.32-.744-.763 0-.446.312-.765.744-.765.483-.052.794.338.794.765zm-1.381 1.97h1.226v6.892h-1.226zm3.989-.054 1.328 3.89c.208.657.432 1.208.536 1.812h.052c.156-.55.38-1.155.587-1.813l1.33-3.889h1.277l-2.66 6.892h-1.173l-2.555-6.892zm7.011 3.73c.052 1.704 1.07 2.416 2.28 2.416.846 0 1.432-.16 1.864-.374l.207.871c-.431.214-1.175.444-2.227.444-2.072 0-3.299-1.42-3.299-3.499 0-2.078 1.175-3.712 3.144-3.712 2.227 0 2.762 1.972 2.762 3.233 0 .266 0 .444-.051.604h-4.68zm3.574-.94c0-.765-.329-2.026-1.71-2.026-1.277 0-1.761 1.155-1.864 2.026zm4.248-5.434h-1.227v3.337h-.69v-3.337h-1.227v-.604h3.144zm4.886 3.39h-.69l-.207-2.788-1.123 2.735h-.467l-1.12-2.734-.208 2.788h-.691l.362-3.943h.691l1.226 2.95 1.226-2.95h.69z"></path></svg>