<svg width="73" height="30" viewBox="0 0 73 30" fill="none" xmlns="http://www.w3.org/2000/svg">
<path d="M15.1255 8.36609H15.0485C10.9469 8.36609 8.49707 11.0519 8.49707 15.5487C8.49707 18.733 10.5724 22.1649 15.129 22.1649C19.6541 22.1649 21.7154 18.7364 21.7154 15.5487C21.7119 11.0519 19.2516 8.36609 15.1255 8.36609ZM15.122 10.177C17.0538 10.1906 19.6226 10.7433 19.6226 15.3825C19.6226 18.7364 18.1422 20.3709 15.0975 20.3811C12.1017 20.3743 10.5829 18.6923 10.5829 15.3825C10.5829 13.1511 11.0553 10.1804 15.122 10.177Z" fill="white"/>
<path d="M70.3889 17.4104L70.3714 17.4647C69.5525 20.3709 66.9557 20.3811 66.1053 20.3845C63.2636 20.3777 61.7482 18.8619 61.6012 15.881H72.4468L72.4503 15.8064C72.4538 15.7216 72.4538 15.6334 72.4538 15.5487C72.4538 10.9163 70.207 8.3627 66.1263 8.3627H66.0668C61.9582 8.3627 59.5049 11.0485 59.5049 15.5487C59.5049 18.8415 61.5172 22.1649 66.0108 22.1649H66.1333C70.6829 22.1649 72.0688 18.9059 72.4538 17.5054L72.4818 17.4104H70.3889ZM61.6362 14.3482C62.0037 10.6145 64.373 10.1804 66.1263 10.1804C67.9042 10.1906 69.9865 10.6789 70.3469 14.3482H61.6362Z" fill="white"/>
<path d="M1.91433 10.8654V8.48817H0L0 21.9411H2.08231V13.3274C2.08581 11.3843 2.61077 10.1804 5.20753 10.1804H8.41675V8.36609H5.65199C3.96515 8.36609 2.40428 9.4038 1.91433 10.8654Z" fill="white"/>
<path d="M29.478 8.36609H27.3887V21.9411H29.478V8.36609Z" fill="white"/>
<path d="M55.81 16.2574C55.81 19.669 53.4897 20.3845 51.5439 20.3845C49.9655 20.3845 47.8657 19.947 47.8657 16.1625V8.36609H45.7799L45.7764 16.0302C45.7764 18.6618 46.3433 22.1649 51.2359 22.1649H51.5299C53.4477 22.1649 55.0785 21.0221 55.957 19.0891V21.9411H57.9063V8.36609H55.81V16.2574Z" fill="white"/>
<path d="M41.7902 10.9909C40.9013 9.26476 39.3754 8.38304 37.2546 8.36609H37.1461C33.2509 8.36609 31.0146 10.9841 31.0146 15.5486C31.0146 18.7466 32.565 22.1649 36.9221 22.1649H37.2161C39.5679 22.1649 40.8978 20.8355 41.6222 19.6147V29.2457H43.757V8.36609H41.7902V10.9909ZM41.6047 14.2736V16.2574C41.6047 19.9572 39.1094 20.3845 37.2301 20.3845C36.1067 20.3845 33.125 20.3845 33.125 15.3859C33.125 12.812 33.6149 10.1804 37.2546 10.1804C39.2774 10.177 41.6047 10.645 41.6047 14.2736Z" fill="white"/>
<path d="M25.3032 0L23.2139 0V21.9411H25.3032V0Z" fill="white"/>
<path d="M29.478 0L27.3887 0V5.09697H29.478V0Z" fill="white"/>
</svg>
